<mxfile host="app.diagrams.net" modified="2022-01-13T01:28:43.012Z" agent="5.0 (Macintosh; Intel Mac OS X 10_14_6) AppleWebKit/537.36 (KHTML, like Gecko) Chrome/97.0.4692.71 Safari/537.36" etag="klGLuqpeiOaSgV0PoSTJ" version="16.2.4" type="github">
  <diagram id="XJ9fxYnILzHP47aIuG97" name="Page-1">
    <mxGraphModel dx="881" dy="591" grid="1" gridSize="10" guides="1" tooltips="1" connect="1" arrows="1" fold="1" page="1" pageScale="1" pageWidth="850" pageHeight="1100" math="0" shadow="0">
      <root>
        <mxCell id="0" />
        <mxCell id="1" parent="0" />
        <mxCell id="uUiIyGZoABDb_zBLG8IJ-4" value="" style="edgeStyle=orthogonalEdgeStyle;rounded=0;orthogonalLoop=1;jettySize=auto;html=1;" edge="1" parent="1" source="uUiIyGZoABDb_zBLG8IJ-1" target="uUiIyGZoABDb_zBLG8IJ-3">
          <mxGeometry relative="1" as="geometry" />
        </mxCell>
        <mxCell id="uUiIyGZoABDb_zBLG8IJ-1" value="x = 0&lt;br&gt;res = 0" style="rounded=1;whiteSpace=wrap;html=1;" vertex="1" parent="1">
          <mxGeometry x="360" y="290" width="120" height="60" as="geometry" />
        </mxCell>
        <mxCell id="uUiIyGZoABDb_zBLG8IJ-11" value="" style="edgeStyle=orthogonalEdgeStyle;rounded=0;orthogonalLoop=1;jettySize=auto;html=1;" edge="1" parent="1" source="uUiIyGZoABDb_zBLG8IJ-2" target="uUiIyGZoABDb_zBLG8IJ-1">
          <mxGeometry relative="1" as="geometry" />
        </mxCell>
        <mxCell id="uUiIyGZoABDb_zBLG8IJ-2" value="开始" style="ellipse;whiteSpace=wrap;html=1;" vertex="1" parent="1">
          <mxGeometry x="360" y="150" width="120" height="80" as="geometry" />
        </mxCell>
        <mxCell id="uUiIyGZoABDb_zBLG8IJ-6" value="" style="edgeStyle=orthogonalEdgeStyle;rounded=0;orthogonalLoop=1;jettySize=auto;html=1;" edge="1" parent="1" target="uUiIyGZoABDb_zBLG8IJ-5">
          <mxGeometry relative="1" as="geometry">
            <mxPoint x="450" y="460" as="sourcePoint" />
            <Array as="points" />
          </mxGeometry>
        </mxCell>
        <mxCell id="uUiIyGZoABDb_zBLG8IJ-9" value="" style="edgeStyle=orthogonalEdgeStyle;rounded=0;orthogonalLoop=1;jettySize=auto;html=1;" edge="1" parent="1" source="uUiIyGZoABDb_zBLG8IJ-3" target="uUiIyGZoABDb_zBLG8IJ-7">
          <mxGeometry relative="1" as="geometry" />
        </mxCell>
        <mxCell id="uUiIyGZoABDb_zBLG8IJ-3" value="x &amp;lt; 10" style="rhombus;whiteSpace=wrap;html=1;rounded=1;" vertex="1" parent="1">
          <mxGeometry x="380" y="420" width="80" height="80" as="geometry" />
        </mxCell>
        <mxCell id="uUiIyGZoABDb_zBLG8IJ-5" value="res += i" style="whiteSpace=wrap;html=1;rounded=1;" vertex="1" parent="1">
          <mxGeometry x="550" y="430" width="120" height="60" as="geometry" />
        </mxCell>
        <mxCell id="uUiIyGZoABDb_zBLG8IJ-13" value="" style="edgeStyle=orthogonalEdgeStyle;rounded=0;orthogonalLoop=1;jettySize=auto;html=1;" edge="1" parent="1" source="uUiIyGZoABDb_zBLG8IJ-7" target="uUiIyGZoABDb_zBLG8IJ-12">
          <mxGeometry relative="1" as="geometry" />
        </mxCell>
        <mxCell id="uUiIyGZoABDb_zBLG8IJ-7" value="输出res" style="whiteSpace=wrap;html=1;rounded=1;" vertex="1" parent="1">
          <mxGeometry x="360" y="560" width="120" height="60" as="geometry" />
        </mxCell>
        <mxCell id="uUiIyGZoABDb_zBLG8IJ-12" value="结束" style="ellipse;whiteSpace=wrap;html=1;rounded=1;" vertex="1" parent="1">
          <mxGeometry x="360" y="700" width="120" height="60" as="geometry" />
        </mxCell>
        <mxCell id="uUiIyGZoABDb_zBLG8IJ-15" value="" style="curved=1;endArrow=classic;html=1;rounded=0;" edge="1" parent="1">
          <mxGeometry width="50" height="50" relative="1" as="geometry">
            <mxPoint x="600" y="430" as="sourcePoint" />
            <mxPoint x="420" y="380" as="targetPoint" />
            <Array as="points">
              <mxPoint x="650" y="430" />
              <mxPoint x="600" y="380" />
            </Array>
          </mxGeometry>
        </mxCell>
      </root>
    </mxGraphModel>
  </diagram>
</mxfile>
